<?xml version="1.0" standalone="no"?>
<!DOCTYPE svg PUBLIC "-//W3C//DTD SVG 20010904//EN"
 "http://www.w3.org/TR/2001/REC-SVG-20010904/DTD/svg10.dtd">
<svg version="1.0" xmlns="http://www.w3.org/2000/svg"
 width="771.000000pt" height="773.000000pt" viewBox="0 0 771.000000 773.000000"
 preserveAspectRatio="xMidYMid meet">

<g transform="translate(0.000000,773.000000) scale(0.100000,-0.100000)"
fill="#000000" stroke="none">
<path d="M4138 7723 c6 -2 18 -2 25 0 6 3 1 5 -13 5 -14 0 -19 -2 -12 -5z"/>
<path d="M3621 7700 c-765 -45 -1498 -315 -2101 -774 -213 -162 -487 -426
-648 -624 -459 -565 -742 -1222 -838 -1944 -21 -161 -30 -629 -15 -807 41
-492 167 -943 386 -1383 90 -179 134 -257 238 -413 575 -864 1472 -1459 2488
-1650 457 -86 984 -84 1441 5 1258 247 2313 1110 2806 2296 282 676 363 1450
226 2174 -222 1182 -981 2184 -2064 2725 -590 295 -1259 433 -1919 395z m539
-250 c705 -64 1369 -334 1937 -786 127 -101 426 -400 532 -533 443 -551 701
-1181 783 -1906 18 -167 15 -570 -6 -750 -116 -978 -599 -1839 -1366 -2436
-729 -567 -1645 -831 -2565 -738 -691 70 -1335 334 -1890 775 -141 113 -436
408 -548 549 -446 560 -717 1234 -777 1930 -13 156 -13 489 1 635 42 462 163
886 369 1295 184 364 388 644 679 935 390 388 877 689 1393 860 268 89 522
140 858 173 84 9 495 6 600 -3z"/>
<path d="M3610 6907 c-115 -44 -237 -112 -405 -225 -373 -252 -755 -580 -957
-822 -118 -141 -169 -263 -148 -353 10 -47 26 -66 67 -84 70 -29 144 -8 259
73 43 30 82 54 87 54 5 0 6 -107 2 -242 -8 -279 5 -485 31 -505 29 -22 92 -26
119 -9 47 31 54 69 65 354 17 435 50 611 125 682 41 38 92 32 212 -23 188 -88
242 -62 342 170 89 205 142 285 198 299 38 10 94 -3 120 -28 35 -33 57 -80 98
-209 89 -279 121 -355 168 -395 34 -28 56 -30 103 -8 42 20 90 78 134 161 46
88 92 138 156 169 185 90 357 -46 414 -328 29 -139 40 -336 33 -556 -7 -230 0
-262 62 -288 49 -20 99 -10 114 23 23 51 32 177 30 448 -1 154 1 279 5 278 3
-2 10 -3 14 -3 5 0 33 -19 63 -41 108 -82 190 -106 262 -75 57 24 72 50 72
125 0 57 -5 78 -37 142 -51 102 -148 218 -325 389 -412 398 -884 734 -1169
831 -120 41 -199 40 -314 -4z"/>
<path d="M3088 5484 c-53 -28 -71 -94 -43 -159 18 -44 53 -59 125 -51 65 6 86
26 95 90 8 49 -10 95 -47 120 -28 20 -94 20 -130 0z"/>
<path d="M3362 5489 c-22 -7 -36 -19 -43 -37 -11 -27 -9 -156 3 -167 3 -3 37
-9 75 -12 63 -5 71 -4 98 19 24 21 29 34 33 86 4 58 3 63 -26 92 -33 32 -73
38 -140 19z"/>
<path d="M4093 5460 c-35 -18 -73 -46 -89 -67 -53 -70 -57 -96 -62 -385 -3
-215 -7 -268 -18 -272 -7 -3 -269 -10 -581 -15 -313 -6 -617 -13 -678 -16
-645 -31 -768 -46 -934 -112 -254 -101 -361 -280 -361 -608 0 -326 94 -497
266 -483 130 11 188 104 270 433 63 256 114 370 179 405 56 30 133 -26 205
-151 72 -124 121 -188 168 -219 51 -34 71 -33 140 7 44 25 73 64 151 199 47
83 85 119 141 134 49 13 85 -3 128 -57 73 -94 88 -146 173 -608 55 -297 137
-435 257 -435 34 0 48 6 77 35 84 85 121 210 165 565 41 332 105 460 242 484
32 6 41 2 73 -25 38 -34 71 -91 106 -185 38 -102 105 -154 196 -154 29 0 34 5
62 63 16 34 41 102 55 151 60 208 117 255 216 177 65 -52 96 -145 125 -368 19
-147 45 -236 86 -291 38 -52 74 -72 132 -72 90 0 139 58 227 270 67 159 111
235 163 274 67 51 153 25 216 -68 38 -54 60 -110 100 -251 54 -185 101 -264
182 -306 73 -37 129 -21 196 55 80 90 118 233 117 431 -2 230 -50 361 -179
490 -62 63 -79 74 -150 98 -207 69 -626 118 -1145 133 l-235 7 3 266 c3 254 2
269 -19 326 -56 153 -221 217 -366 145z"/>
<path d="M3108 5228 c-48 -13 -69 -38 -75 -91 -7 -56 17 -102 62 -124 30 -14
42 -15 89 -4 31 7 58 16 61 21 13 21 17 110 6 142 -12 35 -55 69 -88 67 -10
-1 -35 -5 -55 -11z"/>
<path d="M3333 5206 c-25 -22 -28 -31 -27 -80 2 -89 9 -104 50 -112 45 -8 142
0 155 13 13 13 24 122 16 155 -8 32 -46 48 -112 48 -43 0 -60 -5 -82 -24z"/>
<path d="M4120 3773 c-44 -54 -115 -203 -146 -308 -35 -118 -40 -297 -10 -358
27 -54 69 -80 137 -85 141 -10 209 93 209 316 0 113 -19 222 -55 319 -25 65
-79 153 -95 153 -5 0 -22 -17 -40 -37z"/>
<path d="M5452 3728 c-103 -151 -173 -403 -143 -515 34 -125 168 -161 250 -68
76 87 82 283 15 480 -17 51 -73 145 -86 145 -4 0 -20 -19 -36 -42z"/>
<path d="M2127 3708 c-38 -51 -65 -109 -88 -195 -29 -103 -31 -273 -5 -351 63
-187 278 -190 316 -5 22 102 -17 297 -86 437 -30 61 -90 146 -104 146 -5 0
-20 -15 -33 -32z"/>
<path d="M2672 2748 l-242 -243 0 177 0 177 -85 3 -85 3 0 -400 0 -400 165
165 165 165 98 -98 97 -97 93 0 92 0 0 42 0 42 48 -44 47 -45 288 3 287 2 0
85 0 85 -245 0 -245 0 0 35 0 35 133 0 132 0 90 90 90 90 -223 0 -222 0 0 35
0 35 245 0 245 0 0 85 0 85 -335 0 -335 0 0 -287 0 -288 -122 122 -123 123 98
98 97 98 3 132 c1 73 0 132 -3 132 -3 0 -114 -109 -248 -242z"/>
<path d="M5340 2595 l0 -395 90 0 90 0 0 177 0 178 245 -245 245 -245 0 400 0
400 -85 -3 -85 -3 0 -170 c0 -93 -3 -169 -8 -169 -4 0 -113 106 -242 235 -129
129 -238 235 -242 235 -5 0 -8 -178 -8 -395z"/>
<path d="M3910 2550 l0 -350 90 0 90 0 0 132 0 133 80 -80 80 -80 73 73 c40
39 75 72 78 72 4 0 6 -12 7 -27 0 -16 0 -72 1 -125 l1 -98 85 0 85 0 0 352 0
353 -165 -165 -165 -165 -163 163 c-89 89 -166 162 -170 162 -4 0 -7 -157 -7
-350z"/>
<path d="M1244 2863 l-241 -3 -83 -82 c-45 -45 -86 -92 -91 -105 -12 -33 -11
-255 2 -290 5 -15 45 -63 87 -105 l77 -78 247 0 248 0 0 85 0 85 -198 0 -198
0 -47 48 c-46 47 -47 49 -47 113 0 64 0 65 48 112 l48 47 197 0 197 0 0 90 c0
50 -1 89 -2 88 -2 -2 -112 -4 -244 -5z"/>
<path d="M1627 2772 l-87 -87 0 -242 0 -242 86 -3 c47 -2 88 -1 90 1 2 2 4 63
4 135 l0 130 68 -67 68 -67 87 0 87 0 0 -68 0 -67 90 -90 90 -90 0 335 0 335
-88 88 -87 87 -160 0 -160 0 -88 -88z m356 -126 c43 -40 47 -47 47 -90 l0 -46
-155 0 -155 0 0 42 c0 37 6 48 47 90 46 47 49 48 108 48 58 0 63 -2 108 -44z"/>
<path d="M4717 2772 l-87 -87 0 -243 0 -242 90 0 90 0 0 131 0 131 67 -66 68
-66 87 0 88 0 0 -68 0 -67 90 -90 90 -90 0 335 0 335 -88 88 -87 87 -160 0
-160 0 -88 -88z m355 -129 c43 -42 48 -52 48 -90 l0 -43 -155 0 -155 0 0 45
c0 41 5 50 45 90 43 44 46 45 107 45 61 0 63 -1 110 -47z"/>
<path d="M6060 2530 l0 -330 335 0 335 0 0 85 0 85 -245 0 -245 0 0 35 0 35
133 0 132 0 90 90 90 90 -223 0 -222 0 0 35 0 35 245 0 245 0 0 85 0 85 -335
0 -335 0 0 -330z"/>
<path d="M1160 1075 c13 -14 26 -25 28 -25 3 0 -5 11 -18 25 -13 14 -26 25
-28 25 -3 0 5 -11 18 -25z"/>
<path d="M4408 43 c7 -3 16 -2 19 1 4 3 -2 6 -13 5 -11 0 -14 -3 -6 -6z"/>
</g>
</svg>
